<svg width="313" height="80" viewBox="0 0 313 80" fill="none" xmlns="http://www.w3.org/2000/svg">
<path d="M129.47 23.804H112.894V66.576H102.608V23.804H86.0322V14.11H129.47V23.804Z" fill="black"/>
<path d="M133.867 44.228H150.147C150.048 42.2053 149.308 40.5033 147.927 39.122C146.595 37.7407 144.622 37.05 142.007 37.05C139.639 37.05 137.715 37.79 136.235 39.27C134.755 40.75 133.966 42.4027 133.867 44.228ZM151.109 53.7L159.323 56.142C158.336 59.4967 156.388 62.2593 153.477 64.43C150.616 66.6007 147.039 67.686 142.747 67.686C137.518 67.686 133.078 65.9347 129.427 62.432C125.776 58.88 123.951 54.144 123.951 48.224C123.951 42.6 125.727 38.012 129.279 34.46C132.831 30.8587 137.024 29.058 141.859 29.058C147.483 29.058 151.874 30.7353 155.031 34.09C158.238 37.4447 159.841 42.0573 159.841 47.928C159.841 48.3227 159.816 48.7667 159.767 49.26C159.767 49.7533 159.767 50.148 159.767 50.444L159.693 50.962H133.645C133.744 53.33 134.681 55.3033 136.457 56.882C138.233 58.4607 140.354 59.25 142.821 59.25C147.014 59.25 149.777 57.4 151.109 53.7Z" fill="black"/>
<path d="M181.725 38.16C179.111 38.16 176.915 39.0727 175.139 40.898C173.363 42.7233 172.475 45.2147 172.475 48.372C172.475 51.5293 173.363 54.0453 175.139 55.92C176.965 57.7453 179.185 58.658 181.799 58.658C184.118 58.658 185.968 58.066 187.349 56.882C188.731 55.6487 189.668 54.1933 190.161 52.516L198.819 55.402C197.931 58.7567 196.007 61.6427 193.047 64.06C190.087 66.4773 186.338 67.686 181.799 67.686C176.373 67.686 171.809 65.8607 168.109 62.21C164.459 58.51 162.633 53.8973 162.633 48.372C162.633 42.7973 164.434 38.1847 168.035 34.534C171.686 30.8833 176.175 29.058 181.503 29.058C186.141 29.058 189.939 30.2667 192.899 32.684C195.859 35.052 197.759 37.938 198.597 41.342L189.791 44.302C188.607 40.2073 185.919 38.16 181.725 38.16Z" fill="black"/>
<path d="M213.679 45.19V66.576H203.837V13H213.679V33.202C215.899 30.538 219.179 29.206 223.521 29.206C227.961 29.206 231.315 30.5627 233.585 33.276C235.903 35.94 237.063 39.3933 237.063 43.636V66.576H227.221V45.338C227.221 43.1673 226.653 41.416 225.519 40.084C224.433 38.752 222.756 38.086 220.487 38.086C218.464 38.086 216.836 38.752 215.603 40.084C214.419 41.416 213.777 43.118 213.679 45.19Z" fill="black"/>
<path d="M250.012 45.116H269.474C269.375 42.452 268.487 40.2813 266.81 38.604C265.132 36.8773 262.764 36.014 259.706 36.014C256.943 36.014 254.674 36.9267 252.898 38.752C251.122 40.528 250.16 42.6493 250.012 45.116ZM270.51 54.366L276.504 56.438C275.468 59.7433 273.544 62.4567 270.732 64.578C267.92 66.65 264.516 67.686 260.52 67.686C255.537 67.686 251.294 65.984 247.792 62.58C244.338 59.1267 242.612 54.4893 242.612 48.668C242.612 43.2413 244.289 38.752 247.644 35.2C250.998 31.648 254.994 29.872 259.632 29.872C265.009 29.872 269.202 31.574 272.212 34.978C275.221 38.3327 276.726 42.8467 276.726 48.52C276.726 49.408 276.676 50.148 276.578 50.74H249.79C249.839 53.8973 250.875 56.4873 252.898 58.51C254.97 60.5327 257.51 61.544 260.52 61.544C265.601 61.544 268.931 59.1513 270.51 54.366Z" fill="black"/>
<path d="M277.844 66.576L291.09 48.446L278.288 30.982H286.724L295.456 43.488L304.04 30.982H312.254L299.6 48.446C300.34 49.3833 302.535 52.3927 306.186 57.474C309.836 62.5553 312.007 65.5893 312.698 66.576H304.336L295.16 53.478L286.132 66.576H277.844Z" fill="black"/>
<path fill-rule="evenodd" clip-rule="evenodd" d="M77.4434 56.1748C79.6326 51.2291 80.8486 45.7566 80.8486 40C80.8486 38.459 80.7615 36.9384 80.5919 35.4428C75.4771 32.2841 69.7972 29.3091 65.1454 28.2253C56.8136 26.2841 47.5415 27.4864 47.1109 34.6426C46.743 40.7555 49.8687 43.2744 61.5589 47.4892C67.0368 49.4641 72.4803 52.8417 77.4434 56.1748ZM65.0119 71.8796C58.2989 76.9757 49.9269 80 40.8486 80C18.7572 80 0.848633 62.0914 0.848633 40C0.848633 17.9086 18.7572 0 40.8486 0C51.9091 0 61.9211 4.48915 69.162 11.7448C59.2046 10.6803 45.9872 10.5826 37.4136 15.6547C28.8784 20.7041 23.9193 29.8978 25.2517 38.9409C26.82 49.5844 42.2744 58.7708 52.1477 63.4974C56.5026 65.5823 61.0109 68.7123 65.0119 71.8796Z" fill="#086AD7"/>
</svg>
